# xmcd
#
# Track frame offsets: 
#        150
#        12345
#        28250
#        40510
#        55238
#        70933
#        88534
#        101410
#        118374
#        133582
#        149421
#        167943
#        188195
#        201295
#        224611
#        237581
#        251049
#        269015
#        285095
#        303614
#        315764
#
# Disc length: 4483 seconds
#
# Revision: 0
# Processed by: cddbd v1.5.2PL0 Copyright (c) Steve Scherf et al.
# Submitted via: ExactAudioCopyFreeDBPlugin 1.0
#
DISCID=3f118115
DTITLE=The Blues band - Itchy feet (remastered and bonus)
DYEAR=1981
DGENRE=Blues
TTITLE0=Talkin' Woman Blues
TTITLE1=Who's right, who's wrong
TTITLE2=Rock 'n' Roll Radio
TTITLE3=Itchy feet
TTITLE4=Ultimatum time
TTITLE5=So lonely
TTITLE6=Come on
TTITLE7=Turn around
TTITLE8=I can't be satisfied
TTITLE9=Got to love you baby
TTITLE10=Nothin' but the Blues
TTITLE11=Let your bucket down
TTITLE12=Tobacco Road
TTITLE13=Doing alright
TTITLE14=Stealing
TTITLE15=Let the four winds blow
TTITLE16=Hardworking man
TTITLE17=These kind of Blues
TTITLE18=Smokestack lightning
TTITLE19=Bad Penny Blues
TTITLE20=Green stuff (live)
EXTD=
EXTT0=
EXTT1=
EXTT2=
EXTT3=
EXTT4=
EXTT5=
EXTT6=
EXTT7=
EXTT8=
EXTT9=
EXTT10=
EXTT11=
EXTT12=
EXTT13=
EXTT14=
EXTT15=
EXTT16=
EXTT17=
EXTT18=
EXTT19=
EXTT20=
PLAYORDER=
